<svg aria-hidden="true" style="position: absolute; width: 0; height: 0; overflow: hidden;" version="1.1" xmlns="http://www.w3.org/2000/svg" xmlns:xlink="http://www.w3.org/1999/xlink">
<defs>
<symbol id="icon-1" viewBox="0 0 33 32">
<path d="M32.667 9.807c-0.001-0.144-0.018-0.283-0.051-0.416l0.003 0.012c-0.035-0.155-0.073-0.284-0.119-0.41l0.007 0.023c-0.048-0.129-0.107-0.241-0.179-0.343l0.003 0.005c-0.154-0.221-0.339-0.408-0.551-0.56l-0.007-0.005c-0.101-0.072-0.217-0.137-0.339-0.189l-0.012-0.005c-0.106-0.047-0.233-0.091-0.365-0.125l-0.019-0.004c-0.12-0.031-0.258-0.048-0.4-0.048-0.005 0-0.010 0-0.015 0h-3.477c0.978-0.968 1.467-2.14 1.467-3.517 0-0.645-0.117-1.236-0.35-1.773-0.235-0.538-0.654-1-1.26-1.388-0.607-0.387-1.356-0.58-2.249-0.58-0.362 0-0.729 0.037-1.101 0.113-0.406 0.083-0.763 0.2-1.101 0.352l0.033-0.013c-0.34 0.151-0.675 0.317-1.005 0.5-0.366 0.205-0.679 0.413-0.975 0.642l0.018-0.013c-0.309 0.237-0.607 0.479-0.893 0.727-0.287 0.247-0.563 0.515-0.829 0.806s-0.516 0.57-0.75 0.839c-0.233 0.269-0.462 0.548-0.685 0.839s-0.42 0.553-0.591 0.79c-0.17 0.237-0.329 0.484-0.478 0.742-0.493-0.755-0.971-1.402-1.482-2.020l0.030 0.037c-0.521-0.635-1.153-1.301-1.898-2-0.704-0.667-1.514-1.232-2.399-1.668l-0.057-0.026c-0.893-0.431-1.776-0.646-2.648-0.646-0.893 0-1.643 0.193-2.249 0.581s-1.026 0.85-1.26 1.387c-0.233 0.538-0.351 1.129-0.351 1.774 0 1.377 0.5 2.56 1.499 3.549h-3.541c-0.573 0-1.058 0.199-1.451 0.597s-0.59 0.887-0.59 1.468v6.161h2.073v13.451c0 0.559 0.197 1.043 0.591 1.452s0.877 0.613 1.451 0.613h24.468c0.574 0 1.058-0.205 1.451-0.613s0.591-0.892 0.591-1.451v-13.451h2.041v-6.193zM24.755 2.547c1.212 0 1.818 0.559 1.818 1.677 0 0.010 0 0.022 0 0.033 0 0.728-0.279 1.392-0.735 1.889l0.002-0.002c-0.489 0.548-1.101 0.951-1.835 1.209s-1.515 0.387-2.345 0.387h-3.445c0.442-0.656 0.867-1.219 1.318-1.758l-0.026 0.032c0.5-0.593 1.005-1.13 1.539-1.637l0.008-0.008c0.529-0.513 1.133-0.953 1.792-1.302l0.043-0.021c0.648-0.333 1.271-0.5 1.866-0.5zM7.943 2.547c1.149 0 2.313 0.527 3.493 1.581 1.182 1.062 2.217 2.247 3.099 3.546l0.043 0.067h-3.445c-1.297 0-2.456-0.323-3.477-0.968-1.020-0.645-1.531-1.505-1.531-2.581 0-1.032 0.543-1.57 1.627-1.613 0.057-0.020 0.123-0.032 0.192-0.032h0zM30.625 13.934h-13.272v-4.127h13.271v4.129zM2.041 9.807h13.272v4.129h-13.272v-4.129zM4.115 16h11.199v13.452h-11.198v-13.452zM28.583 29.452h-11.229v-13.452h11.229v13.451z"></path>
</symbol>
<symbol id="icon-2" viewBox="0 0 33 32">
<path d="M4.167 3c0-0.552-0.448-1-1-1s-1 0.448-1 1v0 25c0 0 0 0 0 0.001 0 1.104 0.895 1.999 1.999 2h25c0.552 0 1-0.448 1-1s-0.448-1-1-1v0h-24.999v-25z"></path>
<path d="M30.166 9h-6c-0.552 0-1 0.448-1 1s0.448 1 1 1v0h2.59l-7.59 7.59-4.291-4.3c-0.181-0.183-0.432-0.296-0.71-0.296s-0.529 0.113-0.71 0.296l-0 0-6.585 6.595c-0.18 0.18-0.291 0.429-0.291 0.704 0 0.551 0.446 0.997 0.997 0.997 0.275 0 0.524-0.111 0.704-0.291l5.885-5.885 4.29 4.3c0.181 0.182 0.433 0.295 0.71 0.295s0.528-0.113 0.71-0.295l0-0 8.29-8.3v2.591c0 0.552 0.448 1 1 1s1-0.448 1-1v0-6.001z"></path>
</symbol>
<symbol id="icon-3" viewBox="0 0 32 32">
<path d="M16 0c-8.8 0-16 7.2-16 16s7.2 16 16 16 16-7.2 16-16-7.2-16-16-16zM16 29.8c-7.6 0-13.8-6.2-13.8-13.8s6.2-13.8 13.8-13.8 13.8 6.2 13.8 13.8-6.2 13.8-13.8 13.8z"></path>
<path d="M15.123 22.98c-1.237-0.133-2.128-0.552-2.671-1.257s-0.816-1.749-0.816-3.132v-0.538h3.466v0.399c0 1.011 0.306 1.516 0.918 1.516 0.272 0 0.476-0.099 0.611-0.299 0.15-0.213 0.225-0.472 0.225-0.778 0-0.226-0.204-0.559-0.611-0.998l-2.855-2.832c-1.060-1.011-1.591-2.121-1.591-3.332 0-0.944 0.313-1.729 0.938-2.354 0.639-0.638 1.435-1.044 2.386-1.217v-1.177h1.713v1.157c1.129 0.133 1.985 0.585 2.569 1.356 0.598 0.771 0.897 1.796 0.897 3.072h-3.548l-0.020-0.818c-0.014-0.173-0.102-0.326-0.265-0.458-0.143-0.136-0.337-0.219-0.55-0.219h-0c-0.231 0-0.428 0.073-0.592 0.219-0.163 0.133-0.244 0.312-0.244 0.538 0 0.319 0.326 0.798 0.979 1.437l2.794 2.693c0.44 0.419 0.803 0.914 1.067 1.466l0.013 0.030c0.285 0.572 0.428 1.19 0.428 1.855 0 1.050-0.326 1.901-0.979 2.553-0.653 0.638-1.502 1.018-2.549 1.137v1.436h-1.713v-1.456z"></path>
</symbol>
<symbol id="icon-4" viewBox="0 0 44 32">
<path fill="#000" style="fill: var(--color1, #000)" d="M22.442 19.091l11.303-16.562c0.006-0.009 0.012-0.016 0.017-0.023l-0.001 0.001 0.027-0.032 0.001-0.001c0.239-0.269 0.686-0.381 1.244-0.314 0.554 0.066 1.193 0.306 1.781 0.708s1.045 0.909 1.308 1.402c0.264 0.497 0.323 0.956 0.157 1.28l-0.018 0.032-0.017 0.029-0.021 0.034-11.335 16.602c-0.374-2.125-0.075-4.124 0.809-5.42 0.044-0.064 0.070-0.143 0.070-0.229 0-0.225-0.182-0.407-0.407-0.407-0.011 0-0.021 0-0.032 0.001l0.001-0-4.888 2.898zM22.442 19.091c1.027-0.143 3.192-0.682 4.587-2.722 0.067-0.099 0.175-0.166 0.3-0.177l0.001-0-4.888 2.898zM18.348 31.316l0.123 0.084 0.034-0.145v-0.001l0.001-0.003 0.003-0.012c0.025-0.104 0.041-0.166 0.059-0.227l-0.011 0.043c0.015-0.053 0.032-0.108 0.049-0.156 0.012-0.037 0.027-0.069 0.044-0.099l-0.001 0.003 5.169-7.572c0.025-0.031 0.056-0.057 0.092-0.075l0.002-0.001h0c0.007-0.006 0.045-0.028 0.083-0.049l0.032-0.017c0.529-0.068 1.262-0.064 2.013 0.241 0.513 0.21 1.023 0.099 1.308-0.317l11.573-16.955c0.013-0.020 0.028-0.043 0.041-0.068l0.010-0.015 0.010-0.018c0.010-0.015 0.017-0.032 0.022-0.043 0.282-0.55 0.221-1.226-0.091-1.884-0.313-0.66-0.883-1.314-1.642-1.831-0.926-0.631-1.938-0.93-2.771-0.861-0.535 0.044-1.002 0.24-1.322 0.6-0.008 0.009-0.019 0.022-0.029 0.036l-0.001 0-0.021 0.028c-0.013 0.015-0.025 0.032-0.035 0.045l-0.009 0.012-0.003 0.004-11.578 16.958c-0.285 0.417-0.201 0.932 0.18 1.334 0.56 0.59 0.829 1.273 0.959 1.787-0.009 0.067-0.016 0.112-0.024 0.157l0.004-0.025c-0.005 0.044-0.019 0.083-0.039 0.118l0.001-0.002-5.169 7.57c-0.010 0.015-0.035 0.041-0.075 0.075-0.037 0.032-0.078 0.066-0.121 0.098l-0.006 0.005c-0.037 0.029-0.087 0.066-0.138 0.101l-0.016 0.010-0.010 0.007-0.003 0.002h-0l-0.122 0.084 0.122 0.084 1.303 0.889zM23.26 21.4c-0.211-0.57-0.507-1.061-0.878-1.485l0.005 0.005c0.783-0.086 2.329-0.388 3.753-1.46-0.282 1.21-0.301 2.602-0.037 4.027-0.449-0.156-0.967-0.246-1.506-0.246-0.036 0-0.073 0-0.109 0.001l0.005-0-1.233-0.842z"></path>
<path fill="#000" style="fill: var(--color1, #000)" opacity="0.9" d="M17.762 15.489c-0.847-2.275-2.52-4.075-4.645-5.068l-0.055-0.023c-4.532-2.093-9.922-0.107-12.015 4.425s-0.107 9.922 4.425 12.015c1.111 0.528 2.414 0.837 3.789 0.838h0.001c1.126-0.001 2.203-0.207 3.196-0.583l-0.062 0.021c2.275-0.847 4.075-2.52 5.068-4.645l0.023-0.055c0.53-1.112 0.839-2.416 0.839-3.792 0-1.125-0.206-2.201-0.584-3.193l0.021 0.062zM13.883 24.989l-3.142-0.483-0.462-2.458 2.55-2.757 2.424 0.331 0.726 3.098c-0.552 0.902-1.252 1.657-2.074 2.253l-0.022 0.015zM14.083 25.575c-0.020 0.015-0.041 0.027-0.060 0.042l0.060-0.042zM4.119 21.832l2.171-1.243 3.407 1.573 0.462 2.46-2.725 1.649c-1.070-0.262-2.008-0.709-2.827-1.309l0.022 0.016-0.511-3.144zM4.792 25.794c-0.076-0.049-0.154-0.096-0.229-0.146 0.075 0.052 0.151 0.099 0.229 0.146zM4.378 25.519c-0.055-0.039-0.11-0.078-0.164-0.117 0.053 0.041 0.109 0.078 0.164 0.117zM1.422 19.236c-0.016-0.189-0.026-0.41-0.026-0.632 0-0.872 0.144-1.71 0.409-2.492l-0.016 0.055 2.829-1.458 1.825 1.631-0.444 3.729-2.171 1.244-2.405-2.078zM9.277 10.744h0.007l2.259 2.239-1.011 2.189-3.687 0.731-1.823-1.631 1.231-2.925c0.894-0.38 1.933-0.602 3.024-0.603h0.001zM15.328 19.034l-2.424-0.33-1.834-3.283 1.010-2.189 3.168 0.268c0.65 0.76 1.164 1.659 1.492 2.643l0.016 0.056-1.429 2.834zM16.474 14.182c0.007 0.010 0.012 0.019 0.018 0.029-0.006-0.010-0.013-0.019-0.018-0.029zM15.741 13.165c0.010 0.012 0.020 0.024 0.031 0.036-0.011-0.011-0.021-0.022-0.030-0.035l-0.001-0.001zM15.994 13.483c0.015 0.019 0.029 0.037 0.042 0.057-0.013-0.020-0.027-0.038-0.042-0.057zM16.239 13.822c0.015 0.021 0.028 0.042 0.042 0.061-0.014-0.021-0.027-0.042-0.042-0.061zM14.959 12.355l0.074 0.53-3.003-0.253-2.138-2.119 0.454-0.284c1.794 0.235 3.376 1.001 4.62 2.132l-0.007-0.006zM5.061 11.281l0.537 0.086-1.166 2.773-2.679 1.38-0.132-0.52c0.756-1.579 1.939-2.851 3.399-3.696l0.040-0.022zM0.986 20.329l0.25-0.469 2.281 1.97 0.485 2.976-0.535-0.032c-1.227-1.162-2.106-2.68-2.471-4.389l-0.010-0.056zM4.93 25.881c0.104 0.062 0.211 0.122 0.316 0.178-0.105-0.058-0.212-0.117-0.316-0.178zM7.414 26.873c-0.168-0.037-0.281-0.066-0.393-0.098l0.056 0.013c0.112 0.029 0.223 0.058 0.337 0.084zM6.98 26.763c-0.198-0.055-0.311-0.091-0.423-0.128l0.084 0.024c0.114 0.036 0.226 0.071 0.339 0.104zM12.19 26.555c-0.869 0.331-1.873 0.523-2.923 0.523-0.322 0-0.641-0.018-0.954-0.053l0.038 0.004-0.379-0.392 2.578-1.56 2.976 0.459-0.201 0.506c-0.363 0.198-0.743 0.37-1.137 0.514zM15.909 23.859l-0.076 0.097c0.026-0.032 0.052-0.065 0.076-0.098zM15.656 24.167c-0.036 0.042-0.071 0.083-0.109 0.125 0.036-0.042 0.071-0.084 0.109-0.125zM16.1 23.611l0.027-0.039c-0.011 0.013-0.019 0.026-0.027 0.039zM16.979 22.093l-0.48 0.234-0.687-2.935 1.354-2.687 0.416 0.356c0.32 1.691 0.117 3.434-0.603 5.033z"></path>
<path fill="#000" style="fill: var(--color1, #000)" d="M25.363 5.086c0.022-0.158 0.034-0.34 0.034-0.525 0-0.937-0.32-1.799-0.856-2.484l0.007 0.009c-0.645-0.833-1.594-1.402-2.678-1.542l-0.020-0.002c-2.223-0.285-4.263 1.292-4.546 3.514-0.022 0.158-0.034 0.34-0.034 0.525 0 0.937 0.32 1.799 0.856 2.484l-0.007-0.009c0.108 0.141 0.224 0.272 0.348 0.395 0.614 0.615 1.426 1.033 2.332 1.15l0.020 0.002c0.157 0.022 0.339 0.034 0.523 0.034 0.938 0 1.802-0.32 2.488-0.857l-0.009 0.007c0.832-0.645 1.401-1.595 1.541-2.679l0.002-0.020zM24.772 5.010c-0.109 0.849-0.513 1.587-1.104 2.123l-0.003 0.003 0.016-0.215c-0-0.019-0.014-0.035-0.032-0.038l-0-0-0.023-0.004c-0.002-0-0.004-0.001-0.006-0.001-0.017 0-0.031 0.011-0.037 0.026l-0 0-0.054 0.211c-0.003 0.009-0.006 0.020-0.007 0.031l-0 0.001-0.016 0.092c-0.076-0.094-0.151-0.199-0.219-0.309l-0.008-0.014 0.076-0.227c0.003-0.011 0.007-0.021 0.009-0.032l0.051-0.211c0-0.002 0.001-0.004 0.001-0.006 0-0.017-0.011-0.031-0.026-0.037l-0-0-0.023-0.007c-0.004-0.001-0.008-0.002-0.012-0.002-0.015 0-0.028 0.008-0.035 0.020l-0 0-0.086 0.198c-0.004 0.011-0.009 0.020-0.013 0.031l-0.038 0.112c-0.056-0.099-0.115-0.221-0.168-0.347l-0.009-0.024 0.115-0.216c0.005-0.009 0.009-0.020 0.014-0.030l0.085-0.201c0.001-0.004 0.002-0.008 0.002-0.012 0-0.015-0.008-0.027-0.019-0.035l-0-0-0.022-0.011c-0.005-0.003-0.011-0.004-0.018-0.004-0.012 0-0.024 0.006-0.031 0.015l-0 0-0.117 0.182c-0.006 0.009-0.011 0.018-0.016 0.029l-0.056 0.107c-0.035-0.099-0.071-0.225-0.099-0.354l-0.004-0.023 0.124-0.163c0.007-0.009 0.013-0.018 0.018-0.027l0.117-0.183c0.003-0.005 0.005-0.012 0.005-0.019 0-0.012-0.006-0.023-0.015-0.030l-0-0-0.020-0.014c-0.014-0.011-0.036-0.011-0.049 0.002l-0.146 0.16c-0.007 0.008-0.015 0.016-0.021 0.025l-0.001 0.001-0.047 0.061c-0.020-0.137-0.032-0.274-0.036-0.412l0.126-0.117c0.008-0.007 0.016-0.014 0.023-0.023l0.146-0.16c0.005-0.007 0.008-0.015 0.008-0.024 0-0.010-0.004-0.020-0.010-0.027l0 0-0.016-0.018c-0.007-0.007-0.016-0.012-0.027-0.012-0.008 0-0.015 0.003-0.021 0.007l0-0-0.171 0.133c-0.009 0.007-0.018 0.014-0.026 0.022l0-0-0.030 0.027c0.004-0.108 0.012-0.209 0.025-0.308l-0.002 0.016 0.012-0.091 0.112-0.073c0.009-0.005 0.018-0.012 0.027-0.020l0.171-0.133c0.008-0.007 0.013-0.017 0.013-0.029 0-0.007-0.002-0.014-0.006-0.020l0 0-0.013-0.020c-0.007-0.010-0.019-0.017-0.032-0.017-0.005 0-0.010 0.001-0.015 0.003l0-0-0.193 0.101-0.029 0.016c0.023-0.11 0.054-0.218 0.088-0.324l0.13-0.054c0.011-0.004 0.020-0.009 0.030-0.014l0.191-0.101c0.016-0.009 0.022-0.030 0.015-0.047l-0.009-0.022c-0.005-0.014-0.018-0.023-0.034-0.023-0.004 0-0.008 0.001-0.012 0.002l0-0-0.207 0.067c-0.014 0.005-0.024 0.008-0.034 0.012l0.004-0.001-0.011 0.004c0.041-0.104 0.088-0.205 0.139-0.305l0.126-0.030c0.011-0.002 0.022-0.005 0.032-0.009l0.206-0.069c0.014-0.006 0.024-0.019 0.024-0.035 0-0.003-0-0.005-0.001-0.008l0 0-0.005-0.023c-0.004-0.017-0.019-0.029-0.036-0.029-0.001 0-0.003 0-0.004 0h0l-0.214 0.030-0.032 0.006h-0.002c0.054-0.092 0.115-0.182 0.179-0.269l0.135-0.009c0.012-0 0.023-0.002 0.034-0.004l-0.001 0 0.214-0.035c0.017-0.004 0.029-0.019 0.029-0.036 0-0.001-0-0.002-0-0.004v0l-0.002-0.023c-0.002-0.018-0.016-0.034-0.034-0.036l-0.216-0.004h-0.042c0.071-0.085 0.142-0.166 0.222-0.243l0.182 0.016c0.008 0.001 0.016 0.002 0.025 0.002 0.003 0 0.005-0 0.007-0h0.216c0.018-0.002 0.034-0.016 0.036-0.034l0.002-0.023c0-0.001 0-0.002 0-0.004 0-0.017-0.012-0.032-0.028-0.036l-0-0-0.215-0.038c-0.009-0.002-0.020-0.003-0.032-0.004h-0l-0.058-0.005c0.074-0.067 0.153-0.13 0.234-0.191 0.43 0.566 0.689 1.283 0.689 2.060 0 0.156-0.010 0.309-0.030 0.459l0.002-0.018zM17.895 4.131c0.125-0.946 0.615-1.758 1.322-2.303l0.008-0.006h0.002c0.083 0.099 0.16 0.203 0.233 0.31l-0.058-0.009c-0.010-0.002-0.021-0.004-0.032-0.004l-0.216-0.016c-0.019 0-0.035 0.014-0.038 0.032l-0 0-0.004 0.023c-0 0.002-0.001 0.004-0.001 0.006 0 0.017 0.011 0.031 0.026 0.037l0 0 0.211 0.054c0.011 0.004 0.021 0.005 0.032 0.007l0.18 0.030c0.056 0.095 0.107 0.193 0.153 0.292l-0.009-0.004c-0.009-0.003-0.020-0.007-0.031-0.009l-0.001-0-0.211-0.051c-0.002-0-0.004-0.001-0.007-0.001-0.017 0-0.031 0.011-0.037 0.026l-0 0-0.007 0.024c-0.001 0.003-0.002 0.008-0.002 0.012 0 0.015 0.008 0.028 0.020 0.035l0 0 0.198 0.086c0.011 0.004 0.020 0.009 0.030 0.013l0.128 0.043c0.040 0.101 0.076 0.202 0.105 0.305h-0.002c-0.009-0.005-0.020-0.009-0.030-0.015l-0.201-0.084c-0.004-0.001-0.008-0.002-0.012-0.002-0.015 0-0.027 0.008-0.035 0.019l-0 0-0.011 0.022c-0.003 0.005-0.004 0.011-0.004 0.018 0 0.012 0.006 0.024 0.015 0.031l0 0 0.182 0.117 0.029 0.016 0.115 0.061c0.025 0.109 0.044 0.22 0.058 0.33l-0.009-0.007c-0.009-0.007-0.018-0.013-0.027-0.020l-0.184-0.117c-0.005-0.003-0.012-0.005-0.019-0.005-0.012 0-0.023 0.006-0.030 0.015l-0 0-0.014 0.020c-0.011 0.014-0.011 0.036 0.002 0.048l0.16 0.146c0.007 0.007 0.016 0.014 0.025 0.021l0.112 0.086c0.007 0.112 0.009 0.224 0.004 0.337-0.007-0.007-0.014-0.016-0.023-0.023l-0.16-0.146c-0.007-0.005-0.015-0.008-0.024-0.008-0.010 0-0.020 0.004-0.027 0.010l0-0-0.018 0.016c-0.007 0.007-0.012 0.016-0.012 0.027 0 0.008 0.003 0.016 0.007 0.022l-0-0 0.133 0.171c0.007 0.009 0.015 0.016 0.022 0.025l0.090 0.096-0.011 0.092c-0.015 0.116-0.033 0.214-0.055 0.311l0.004-0.021-0.021-0.034c-0.005-0.009-0.013-0.018-0.020-0.027l-0.133-0.171c-0.007-0.008-0.017-0.013-0.029-0.013-0.007 0-0.014 0.002-0.020 0.006l0-0-0.020 0.013c-0.010 0.007-0.017 0.019-0.017 0.032 0 0.005 0.001 0.010 0.003 0.015l-0-0 0.101 0.193 0.016 0.029 0.093 0.144c-0.045 0.156-0.092 0.286-0.147 0.412l0.008-0.021-0.029-0.070c-0.004-0.011-0.009-0.020-0.014-0.030l-0.101-0.191c-0.009-0.016-0.030-0.022-0.047-0.015l-0.022 0.009c-0.014 0.006-0.023 0.019-0.023 0.034 0 0.004 0.001 0.008 0.002 0.011l-0-0 0.066 0.207 0.011 0.030 0.079 0.187c-0.057 0.117-0.122 0.229-0.195 0.339l-0.027-0.115c-0.003-0.013-0.006-0.023-0.010-0.034l0 0.001-0.069-0.206c-0.006-0.014-0.019-0.024-0.035-0.024-0.003 0-0.005 0-0.008 0.001l0-0-0.023 0.006c-0.017 0.004-0.029 0.019-0.029 0.036 0 0.001 0 0.002 0 0.004v-0l0.030 0.214 0.006 0.032 0.056 0.238c-0.081 0.11-0.169 0.215-0.263 0.315l-0.009-0.117c-0-0.012-0.002-0.023-0.004-0.034l0 0.001-0.034-0.214c-0.004-0.017-0.019-0.029-0.036-0.029-0.001 0-0.002 0-0.004 0h0l-0.023 0.002c-0.018 0.002-0.035 0.016-0.036 0.035l-0.005 0.216v0.032l0.016 0.24c-0.092 0.087-0.19 0.17-0.292 0.248l-0.009 0.006 0.009-0.093c0.002-0.011 0.002-0.022 0.002-0.032v-0.216c-0.002-0.018-0.016-0.034-0.034-0.036l-0.024-0.002c-0.001-0-0.002-0-0.003-0-0.018 0-0.032 0.012-0.036 0.029l-0 0-0.038 0.214c-0.002 0.011-0.004 0.021-0.004 0.032l-0.009 0.105c-0.421-0.564-0.674-1.274-0.674-2.044 0-0.158 0.011-0.313 0.031-0.464l-0.002 0.018zM20.892 8.009c-0.869-0.111-1.623-0.533-2.161-1.149l-0.003-0.004c0.013-0.009 0.025-0.016 0.038-0.025 0.023-0.018 0.049-0.036 0.072-0.054l0.147 0.012c0.009 0.001 0.018 0.002 0.028 0.002 0.002 0 0.003-0 0.004-0h0.216c0.018-0.002 0.035-0.016 0.036-0.034l0.002-0.023c0-0.001 0-0.003 0-0.004 0-0.018-0.012-0.032-0.029-0.036l-0-0-0.214-0.038c-0.011-0.002-0.022-0.004-0.032-0.004h-0.004c0.11-0.094 0.209-0.189 0.303-0.29l0.002-0.002 0.106-0.007c0.011 0 0.021-0.002 0.032-0.004l0.214-0.035c0.017-0.004 0.029-0.019 0.029-0.036 0-0.001-0-0.002-0-0.004v0l-0.002-0.023c-0.002-0.018-0.016-0.034-0.034-0.036l-0.216-0.004c0.088-0.107 0.17-0.216 0.245-0.332l0.107-0.025c0.010-0.002 0.021-0.005 0.032-0.009l0.205-0.069c0.015-0.006 0.025-0.019 0.025-0.036 0-0.003-0-0.005-0.001-0.008l0 0-0.006-0.023c-0.004-0.017-0.019-0.029-0.036-0.029-0.001 0-0.002 0-0.004 0h0l-0.214 0.030h-0.004c0.067-0.115 0.126-0.236 0.18-0.359l0.123-0.052c0.011-0.004 0.020-0.009 0.030-0.015l0.191-0.101c0.016-0.009 0.022-0.030 0.015-0.047l-0.009-0.021c-0.005-0.014-0.019-0.024-0.034-0.024-0.004 0-0.008 0.001-0.011 0.002l0-0-0.207 0.067c0.089-0.033 0.080-0.029 0.071-0.026l-0.098 0.037c0.041-0.115 0.077-0.233 0.108-0.354l0.149-0.096c0.010-0.007 0.019-0.013 0.027-0.020l-0 0 0.172-0.133c0.008-0.007 0.013-0.017 0.013-0.029 0-0.007-0.002-0.014-0.006-0.020l0 0-0.013-0.020c-0.007-0.010-0.018-0.017-0.032-0.017-0.005 0-0.011 0.001-0.015 0.003l0-0-0.193 0.101-0.029 0.016-0.030 0.020c0.013-0.069 0.023-0.137 0.032-0.206l0.014-0.126 0.164-0.151c0.007-0.007 0.016-0.014 0.023-0.023l0.146-0.16c0.005-0.007 0.008-0.015 0.008-0.024 0-0.010-0.004-0.019-0.010-0.026l0 0-0.016-0.018c-0.007-0.008-0.017-0.012-0.027-0.012-0.008 0-0.015 0.003-0.021 0.007l0-0-0.171 0.134c-0.009 0.007-0.018 0.014-0.026 0.021l0-0-0.056 0.051c0.001-0.035 0.002-0.077 0.002-0.119 0-0.072-0.002-0.143-0.006-0.214l0 0.010 0.152-0.196c0.006-0.008 0.012-0.017 0.017-0.026l0.001-0.001 0.117-0.184c0.003-0.005 0.005-0.012 0.005-0.019 0-0.012-0.006-0.023-0.015-0.030l-0-0-0.020-0.015c-0.014-0.010-0.036-0.010-0.048 0.002l-0.146 0.16-0.021 0.025-0.058 0.075c-0.016-0.128-0.034-0.236-0.057-0.342l0.004 0.025 0.117-0.22c0.006-0.009 0.009-0.020 0.015-0.030l0.084-0.2c0.001-0.003 0.002-0.008 0.002-0.012 0-0.015-0.008-0.028-0.020-0.035l-0.022-0.011c-0.005-0.003-0.012-0.005-0.018-0.005-0.012 0-0.023 0.006-0.030 0.015l-0 0-0.117 0.183c-0.005 0.007-0.010 0.017-0.016 0.026l-0.001 0.002-0.043 0.081c-0.034-0.122-0.065-0.215-0.099-0.306l0.009 0.027 0.085-0.25c0.003-0.009 0.006-0.020 0.008-0.031l0-0.001 0.051-0.211c0-0.002 0.001-0.004 0.001-0.007 0-0.017-0.011-0.031-0.026-0.037l-0-0-0.023-0.007c-0.003-0.001-0.008-0.002-0.012-0.002-0.015 0-0.028 0.008-0.035 0.020l-0 0-0.086 0.198c-0.004 0.011-0.009 0.020-0.013 0.030l-0.032 0.095c-0.063-0.143-0.125-0.261-0.194-0.375l0.008 0.014 0.030-0.178c0.002-0.011 0.004-0.022 0.004-0.032l0.016-0.216c0-0.019-0.014-0.035-0.032-0.038l-0-0-0.023-0.004c-0.002-0-0.004-0.001-0.006-0.001-0.017 0-0.031 0.011-0.037 0.026l-0 0-0.054 0.211c-0.003 0.009-0.005 0.020-0.007 0.031l-0 0.001-0.004 0.022c-0.068-0.103-0.142-0.204-0.221-0.301-0.004-0.005-0.009-0.009-0.013-0.014v-0.009c0.541-0.367 1.208-0.587 1.927-0.587 0.154 0 0.306 0.010 0.455 0.030l-0.018-0.002c0.79 0.102 1.482 0.458 2.006 0.982v0c0.070 0.070 0.137 0.146 0.202 0.224-0.085 0.064-0.168 0.132-0.247 0.202l0.002-0.022c0.002-0.010 0.002-0.021 0.002-0.032v-0.216c-0.002-0.018-0.016-0.035-0.034-0.036l-0.023-0.002c-0.001-0-0.002-0-0.003-0-0.018 0-0.032 0.012-0.036 0.029l-0 0-0.038 0.214c-0.002 0.010-0.003 0.021-0.004 0.032v0l-0.016 0.18c-0.092 0.094-0.18 0.192-0.264 0.295l-0.006 0.008-0.007-0.099c-0-0.012-0.002-0.023-0.004-0.034l0 0.001-0.034-0.214c-0.004-0.017-0.019-0.029-0.036-0.029-0.001 0-0.002 0-0.004 0h0l-0.023 0.002c-0.018 0.002-0.035 0.016-0.036 0.034l-0.004 0.216v0.033l0.018 0.263c-0.056 0.081-0.108 0.163-0.158 0.247l-0.022-0.088c-0.002-0.013-0.005-0.023-0.009-0.034l0 0.002-0.069-0.206c-0.006-0.014-0.019-0.024-0.035-0.024-0.003 0-0.005 0-0.008 0.001l0-0-0.024 0.005c-0.017 0.004-0.029 0.019-0.029 0.036 0 0.001 0 0.003 0 0.004v-0l0.030 0.214 0.005 0.033 0.058 0.241c-0.039 0.074-0.083 0.171-0.123 0.27l-0.009 0.024-0.036-0.086c-0.004-0.011-0.010-0.020-0.015-0.030l-0.101-0.192c-0.009-0.016-0.030-0.022-0.047-0.014l-0.022 0.009c-0.014 0.006-0.023 0.019-0.023 0.034 0 0.004 0.001 0.008 0.002 0.012l-0-0 0.066 0.207 0.011 0.030 0.096 0.229c-0.026 0.076-0.055 0.179-0.079 0.285l-0.005 0.025-0.042-0.063c-0.005-0.009-0.013-0.018-0.020-0.027l-0.133-0.171c-0.013-0.015-0.032-0.016-0.049-0.007l-0.020 0.012c-0.011 0.007-0.018 0.018-0.018 0.032 0 0.006 0.001 0.011 0.003 0.016l-0-0 0.101 0.193 0.016 0.028 0.12 0.187c-0.005 0.027-0.011 0.070-0.017 0.113l-0.001 0.013c-0.008 0.056-0.016 0.128-0.020 0.2l-0 0.008-0.025-0.027c-0.007-0.007-0.014-0.016-0.023-0.023l-0.16-0.146c-0.007-0.005-0.015-0.008-0.024-0.008s-0.019 0.004-0.026 0.010l0-0-0.018 0.016c-0.008 0.007-0.012 0.016-0.012 0.027 0 0.008 0.003 0.016 0.007 0.022l-0-0 0.133 0.171 0.022 0.025 0.121 0.131c-0 0.014-0 0.030-0 0.047 0 0.114 0.005 0.226 0.016 0.337l-0.001-0.014-0.023-0.016-0.184-0.117c-0.005-0.003-0.012-0.005-0.019-0.005-0.012 0-0.023 0.006-0.030 0.015l-0.014 0.020c-0.011 0.014-0.011 0.036 0.002 0.048l0.16 0.146c0.007 0.007 0.016 0.014 0.025 0.021l0.107 0.081c0.019 0.132 0.048 0.263 0.083 0.393-0.002 0-0.004-0.002-0.004-0.002l-0.2-0.085c-0.004-0.001-0.008-0.002-0.012-0.002-0.015 0-0.028 0.008-0.035 0.020l-0 0-0.011 0.021c-0.003 0.005-0.004 0.011-0.004 0.018 0 0.012 0.006 0.024 0.015 0.031l0 0 0.182 0.117c0.009 0.006 0.018 0.011 0.028 0.016l0.098 0.051c0.043 0.13 0.094 0.258 0.153 0.382l-0.209-0.051c-0.002-0-0.004-0.001-0.006-0.001-0.017 0-0.031 0.011-0.037 0.026l-0 0-0.007 0.023c-0.001 0.004-0.002 0.008-0.002 0.012 0 0.015 0.008 0.028 0.020 0.035l0 0 0.198 0.086c0.011 0.004 0.020 0.009 0.030 0.013l0.102 0.034c0.066 0.122 0.139 0.244 0.219 0.359h-0.004c-0.010-0.002-0.021-0.004-0.032-0.004l-0.216-0.016c-0.019 0-0.035 0.014-0.038 0.032l-0 0-0.004 0.023c-0 0.002-0.001 0.004-0.001 0.006 0 0.017 0.011 0.031 0.026 0.037l0 0 0.211 0.054c0.011 0.004 0.021 0.005 0.032 0.007l0.146 0.025c0.011 0.014 0.022 0.028 0.035 0.041-0.561 0.399-1.26 0.638-2.014 0.638-0.157 0-0.311-0.010-0.462-0.030l0.018 0.002z"></path>
</symbol>
<symbol id="icon-5" viewBox="0 0 30 32">
<path stroke-linejoin="miter" stroke-linecap="butt" stroke-miterlimit="4" stroke-width="2.4178" d="M15.049 12.060c-2.155 0.122-3.857 1.899-3.857 4.074 0 0.033 0 0.065 0.001 0.098l-0-0.005v10.647c0 2.889 1.273 4.643 3.134 5.017 0.237 0.050 0.509 0.079 0.788 0.079 2.193 0 3.972-1.778 3.972-3.972 0-0.003 0-0.007 0-0.011v0.001-11.945c0-0.002 0-0.004 0-0.006 0-2.194-1.777-3.973-3.97-3.977h-0M15.049 12.060v1.209h0.036M15.049 12.060l0.064 1.182 0.003-1.182M15.049 12.060h0.067M15.084 13.269c-1.503 0.101-2.684 1.345-2.684 2.865 0 0.023 0 0.046 0.001 0.069l-0-0.003v10.675c0 2.556 1.074 3.612 2.163 3.832h0.001c0.165 0.035 0.355 0.055 0.549 0.055 1.525 0 2.762-1.237 2.762-2.762 0-0.003 0-0.005 0-0.008v0-11.95c0-0.001 0-0.003 0-0.005 0-1.527-1.236-2.765-2.762-2.768h0.001v-1.209M15.084 13.269l0.028-0.001v0.002h-0.028zM28.346 5.207h0.007v22.795c0 0.004 0 0.009 0 0.014 0 1.524-1.23 2.76-2.752 2.769h-0.004c-0.007 0-0.015 0-0.023 0-0.106 0-0.21-0.006-0.313-0.018l0.013 0.001c-1.385-0.221-2.431-1.407-2.431-2.837 0-0.024 0-0.049 0.001-0.073l-0 0.004v-23.73c-0-0.020-0.001-0.044-0.001-0.068 0-1.432 1.049-2.62 2.42-2.836l0.016-0.002c0.091-0.011 0.197-0.017 0.304-0.017 1.529 0 2.768 1.239 2.768 2.768 0 0.005 0 0.010-0 0.015v-0.001l-0.006 1.215zM3.527 25.477c0.3-0.122 0.649-0.193 1.014-0.193 1.522 0 2.756 1.234 2.756 2.756 0 0.75-0.3 1.43-0.786 1.927l0-0c-0.5 0.509-1.196 0.824-1.965 0.824-1.521 0-2.755-1.233-2.755-2.755 0-1.154 0.709-2.142 1.716-2.552l0.018-0.007z"></path>
</symbol>
<symbol id="icon-6" viewBox="0 0 30 32">
<path stroke-linejoin="miter" stroke-linecap="butt" stroke-miterlimit="4" stroke-width="1.8824" d="M20.609 8.685l0.010 0.009c2.152 1.918 4.019 3.617 5.362 5.373 1.328 1.736 2.094 3.465 2.116 5.436 0.025 3.378-2.736 6.192-6.111 6.22-2.528-0.006-4.725-1.037-5.761-2.72l-1.455 0.505-1.321-0.431c-0.936 1.698-3.148 2.772-5.677 2.767h-0.009c-3.381 0.025-6.197-2.739-6.222-6.114v-0.003c-0.021-1.969 0.709-3.692 2.004-5.444 1.311-1.776 3.148-3.512 5.276-5.519 2.69-2.51 4.351-4.516 5.346-5.914 0.192-0.269 0.359-0.514 0.504-0.738 0.147 0.218 0.318 0.459 0.512 0.722 1.018 1.377 2.708 3.36 5.426 5.852zM16.317 30.821l-2.889 0.002 0.016-0.030c0.349-0.685 0.627-1.479 0.854-2.292 0.223-0.801 0.403-1.646 0.55-2.466 0.149 0.816 0.334 1.656 0.563 2.453 0.237 0.818 0.527 1.616 0.89 2.305l0.016 0.029zM14.651 0.238s-0.139 0.342-0.537 0.992l1.096-0.011c-0.412-0.643-0.558-0.981-0.558-0.981z"></path>
</symbol>
</defs>
</svg>
